<svg id="Ebene_2" data-name="Ebene 2" xmlns="http://www.w3.org/2000/svg" viewBox="0 0 463.01 98.8"><defs><style>.cls-2{fill:#b31218}</style></defs><g id="Ebene_2-2" data-name="Ebene 2"><path fill="#fff" d="M5.27 5.91h88.51v88.51H5.27z"/><path class="cls-2" d="M0 0v98.8h98.8V0H0zm10.21 12.9l35.64 23.73L28.03 48.5 10.21 60.37V12.9zM47.4 87.71L11.76 63.97 29.58 52.1 47.4 40.23v47.48zm3.85 0V40.18l35.71 23.79-35.71 23.74zm37.26-27.34L52.87 36.63 88.51 12.9v47.47z"/><g><path d="M119.57 77.93h14.73c.1 0 .18-.08.18-.18V57.23c0-.1.08-.18.18-.18h18.59c.1 0 .18-.08.18-.18V44.6c0-.1-.08-.18-.18-.18h-18.59a.18.18 0 01-.18-.18V33.72c0-.1.08-.18.18-.18h21.75c.1 0 .18-.08.18-.18V21.09c0-.1-.08-.18-.18-.18h-36.85c-.1 0-.18.08-.18.18v56.69c0 .1.08.18.18.18zM213.58 49.14c0-4.68-.64-8.83-1.93-12.46-1.29-3.63-3.09-6.7-5.4-9.22-2.31-2.52-5.1-4.42-8.38-5.71s-6.88-1.93-10.8-1.93-7.59.64-10.84 1.93-6.03 3.18-8.34 5.66c-2.31 2.49-4.11 5.56-5.4 9.22-1.29 3.66-1.93 7.83-1.93 12.51s.64 8.88 1.93 12.6c1.29 3.72 3.09 6.85 5.4 9.39 2.31 2.54 5.09 4.49 8.34 5.84 3.25 1.35 6.86 2.02 10.84 2.02s7.52-.67 10.8-2.02c3.28-1.34 6.07-3.29 8.38-5.84 2.31-2.55 4.11-5.68 5.4-9.39 1.29-3.71 1.93-7.91 1.93-12.6zm-18.39 12.33c-1.96 3.01-4.67 4.52-8.12 4.52s-6.16-1.51-8.12-4.52c-1.96-3.01-2.94-7.12-2.94-12.33 0-4.62.77-8.31 2.32-11.07 2.19-3.91 7.74-6.16 12-4.77 1.95.64 3.57 1.89 4.87 3.77 1.96 2.84 2.94 6.86 2.94 12.07s-.98 9.32-2.94 12.33z"/><path d="M258.88 20.87h-15.72c-.08 0-.15.05-.17.12l-3.29 9.18c-.52 1.35-1.08 2.8-1.67 4.35-.59 1.55-1.2 3.26-1.84 5.14h-.35c-.82-1.87-1.54-3.58-2.15-5.14-.61-1.55-1.24-3-1.89-4.35l-3.81-9.19a.185.185 0 00-.17-.11H211.4c-.14 0-.23.15-.16.27l14.38 27.38c.03.05.03.12 0 .17l-15.26 28.96c-.06.12.02.27.16.27h15.72c.07 0 .14-.04.17-.11l4.16-10.07c.64-1.52 1.26-3.04 1.84-4.56.59-1.52 1.2-3.16 1.85-4.91h.35c.7 1.76 1.38 3.4 2.02 4.91.64 1.52 1.32 3.05 2.02 4.56l4.52 10.07c.03.07.1.11.17.11h16.43c.14 0 .23-.15.16-.27l-15.26-28.26a.172.172 0 010-.17l14.39-28.09c.06-.12-.03-.27-.16-.27zM359.61 33.51h14.73c.1 0 .18.08.18.18v44.05c0 .1.08.18.18.18h14.73c.1 0 .18-.08.18-.18V33.69c0-.1.08-.18.18-.18h14.73c.1 0 .18-.08.18-.18V21.06c0-.1-.08-.18-.18-.18h-44.93c-.1 0-.18.08-.18.18v12.27c0 .1.08.18.18.18zM296.67 47.73v-.35c1.64-.41 3.06-1.05 4.26-1.93 1.2-.88 2.19-1.89 2.98-3.03s1.36-2.34 1.71-3.6c.35-1.26.53-2.5.53-3.73 0-2.81-.57-5.14-1.71-6.98-1.14-1.84-2.68-3.29-4.61-4.35-1.93-1.05-4.21-1.8-6.84-2.24-2.64-.44-5.44-.66-8.43-.66H264.2c-.1 0-.18.08-.18.18v56.69c0 .1.08.18.18.18h22.11c3.04 0 5.94-.32 8.69-.97 2.75-.64 5.13-1.65 7.15-3.03 2.02-1.38 3.63-3.13 4.83-5.27 1.2-2.13 1.8-4.66 1.8-7.59 0-3.8-1.01-6.77-3.03-8.91-2.02-2.14-5.05-3.61-9.08-4.43zm-17.56-15.09c0-.1.08-.18.18-.18h4.91c2.46 0 4.27.38 5.44 1.14 1.17.76 1.75 2.02 1.75 3.78s-.59 3.19-1.75 4.3c-1.17 1.11-2.99 1.67-5.44 1.67h-4.91a.18.18 0 01-.18-.18V32.65zm6.14 33.7h-5.96a.18.18 0 01-.18-.18v-12.1c0-.1.08-.18.18-.18h5.96c2.98 0 5.19.47 6.63 1.41 1.44.94 2.15 2.46 2.15 4.56 0 4.33-2.93 6.5-8.78 6.5zM336.63 32.81c-.76 2.17-1.51 4.27-2.24 6.32-.73 2.05-1.48 4.18-2.24 6.41h-.35c-.76-2.22-1.49-4.36-2.19-6.41s-1.41-4.15-2.11-6.32l-4.17-11.82a.195.195 0 00-.17-.12h-15.73c-.13 0-.22.14-.17.26l17.07 37.1s.02.05.02.08v19.44c0 .1.08.18.18.18h14.73c.1 0 .18-.08.18-.18V58.31s0-.05.02-.08l17.07-37.1c.06-.12-.03-.26-.17-.26h-15.38c-.08 0-.15.05-.17.12l-4.17 11.82zM423.77 65.1v-9.81c0-.1.08-.18.18-.18h18.24c.1 0 .18-.08.18-.18V42.66c0-.1-.08-.18-.18-.18h-18.24a.18.18 0 01-.18-.18v-8.59c0-.1.08-.18.18-.18h21.4c.1 0 .18-.08.18-.18V21.08c0-.1-.08-.18-.18-.18h-36.5c-.1 0-.18.08-.18.18v56.69c0 .1.08.18.18.18h37.38c.1 0 .18-.08.18-.18V65.5c0-.1-.08-.18-.18-.18h-22.28a.18.18 0 01-.18-.18z"/><rect class="cls-2" x="450.36" y="65.29" width="12.64" height="12.64" rx=".24" ry=".24"/></g></g></svg>